# xmcd CD database file
# Copyright (C) 1993-1998 Ti Kan
#
# Track frame offsets:
#	182
#	17310
#	36250
#	54232
#	68560
#	79035
#	89135
#	106060
#	121590
#	134990
#	153115
#	169447
#	184627
#	200947
#	216267
#	233452
#
# Disc length: 3339 seconds
#
# Revision: 1
# Processed by: cddbd v1.4b41PL1 Copyright (c) Steve Scherf et al.
# Submitted via: CDValet v3.31 - Copyright (c) 1997 Greg Leichner
#
DISCID=d30d0910
DTITLE=Various (Not Original Artists) - Halloween dance Party F
DTITLE=avorites
DYEAR=1900
DGENRE=
TTITLE0=Monster Mash
TTITLE1=Ghostbusters
TTITLE2=The Time warp
TTITLE3=Macho Man
TTITLE4=Bad Moon Rising
TTITLE5=Purple People Eater
TTITLE6=Rock Lobster
TTITLE7=Hot Hot Hot
TTITLE8=Soul Man
TTITLE9=Let's Go Dancin'
TTITLE10=Disco Inferno
TTITLE11=Twilight Zone
TTITLE12=Don't Leave Me This Way
TTITLE13=Super Freak
TTITLE14=Stayin' Alive
TTITLE15=Spooky
EXTD=
EXTT0=
EXTT1=
EXTT2=
EXTT3=
EXTT4=
EXTT5=
EXTT6=
EXTT7=
EXTT8=
EXTT9=
EXTT10=
EXTT11=
EXTT12=
EXTT13=
EXTT14=
EXTT15=
PLAYORDER=
